# File created by Blade
# Date/Time:  Tue Sep 23 19:06:47 2014
# Frame Rate: 120.000 fps
#------------------------------------------------------
:FULLY-SPECIFIED
:DEGREES
1080
root 0.165965 32.387722 0.874272 34.741702 3.343096 -0.654853
Spine -38.622835 -3.387040 3.744669
Head 1.148594 -2.666142 -5.728310
LeftShoulder -22.138032 38.861932 24.000622
LeftArm 53.510032 -48.550300 -49.909160
LeftForeArm 100.315960 -0.000000 -15.236050
LeftHand -11.991482 -0.000000 61.939332
LeftHandThumb1 -26.253704 0.000000 33.147579
RightShoulder -19.100183 -36.725435 -26.471043
RightArm 43.929845 27.102603 41.886854
RightForeArm 11.128169 -0.000000 -6.918850
RightHand 3.834531 -0.000000 4.060059
RightHandThumb1 -24.326973 -0.000000 -32.862282
LeftUpLeg -27.993946 3.540367 2.885876
LeftLeg -1.006587 -0.000000 0.000000
LeftFoot -6.620088 2.014763 -3.364739
LeftToeBase 3.722356 -0.000000 -0.000000
RightUpLeg -27.787177 -5.598611 3.583113
RightLeg -2.623729 -0.000000 0.000000
RightFoot -6.634934 -4.842080 2.428834
RightToeBase 9.619523 -0.000000 -0.000000
1081
root 0.161948 32.390502 0.842213 34.762770 3.256447 -0.675437
Spine -38.624581 -3.366620 3.701180
Head 1.211465 -2.653455 -5.781696
LeftShoulder -22.096995 38.825909 24.065275
LeftArm 53.339929 -48.410510 -49.752922
LeftForeArm 100.262789 -0.000000 -15.173647
LeftHand -12.118311 -0.000000 61.965551
LeftHandThumb1 -26.253704 0.000000 33.147579
RightShoulder -19.061326 -36.789966 -26.475971
RightArm 43.996200 27.011985 41.929713
RightForeArm 11.209156 -0.000000 -6.975924
RightHand 4.217771 -0.000000 3.988414
RightHandThumb1 -24.326973 -0.000000 -32.862282
LeftUpLeg -28.061483 3.576699 2.881457
LeftLeg -1.002593 -0.000000 0.000000
LeftFoot -6.592063 2.071584 -3.370049
LeftToeBase 3.710735 -0.000000 -0.000000
RightUpLeg -27.896589 -5.568206 3.592851
RightLeg -2.579910 -0.000000 0.000000
RightFoot -6.581415 -4.796924 2.357539
RightToeBase 9.603474 -0.000000 -0.000000
1082
root 0.160729 32.392525 0.810849 34.767669 3.127031 -0.689983
Spine -38.604304 -3.305048 3.631233
Head 1.263652 -2.619555 -5.853586
LeftShoulder -22.135548 38.930908 23.980465
LeftArm 53.438900 -48.454856 -49.788002
LeftForeArm 100.297687 -0.000000 -15.077250
LeftHand -12.170494 -0.000000 61.998721
LeftHandThumb1 -26.253704 0.000000 33.147579
RightShoulder -19.011827 -36.865075 -26.477587
RightArm 44.013925 26.988757 41.994836
RightForeArm 11.303818 -0.000000 -6.872998
RightHand 3.901464 -0.000000 3.886084
RightHandThumb1 -24.326973 -0.000000 -32.862282
LeftUpLeg -28.101857 3.651381 2.834045
LeftLeg -1.006995 -0.000000 0.000000
LeftFoot -6.564118 2.124344 -3.334710
LeftToeBase 3.724205 -0.000000 -0.000000
RightUpLeg -27.989785 -5.476064 3.552768
RightLeg -2.535931 -0.000000 0.000000
RightFoot -6.557876 -4.780290 2.353988
RightToeBase 9.656290 -0.000000 -0.000000
1083
root 0.159447 32.394520 0.780047 34.762055 3.061788 -0.680851
Spine -38.573247 -3.326794 3.598694
Head 1.302954 -2.558233 -5.936049
LeftShoulder -22.183163 38.968293 23.911137
LeftArm 53.399958 -48.367472 -49.673956
LeftForeArm 100.233529 -0.000000 -15.030356
LeftHand -12.184693 -0.000000 62.012555
LeftHandThumb1 -26.253704 0.000000 33.147579
RightShoulder -18.945528 -36.894593 -26.491388
RightArm 44.026962 26.923478 42.040483
RightForeArm 11.473490 -0.000000 -6.845076
RightHand 4.124378 -0.000000 3.796927
RightHandThumb1 -24.326973 -0.000000 -32.862282
LeftUpLeg -28.162544 3.642959 2.817929
LeftLeg -0.963198 -0.000000 0.000000
LeftFoot -6.555675 2.183289 -3.309518
LeftToeBase 3.762635 -0.000000 -0.000000
RightUpLeg -28.047581 -5.444704 3.524568
RightLeg -2.529027 -0.000000 0.000000
RightFoot -6.524867 -4.782798 2.283624
RightToeBase 9.628574 -0.000000 -0.000000
